<?xml version="1.0" encoding="utf-8"?>
<svg viewBox="0 0 500 500" xmlns="http://www.w3.org/2000/svg">
  <path d="M 273.652 313.536 C 273.071 313.546 272.612 313.489 272.322 313.35 C 269.561 312.077 283.011 291.153 283.87 276.561 C 236.746 278.473 111.276 298.969 102.84 295.822 C 97.326 293.766 102.314 270.375 104.917 246.072 C 107.522 221.768 95.147 197.72 101.198 195.466 C 110.464 192.015 245.397 209.014 292.245 209.32 C 295.024 194.694 289.387 174.097 292.478 172.723 C 302.888 168.097 447.863 229.314 446.747 238.231 C 445.673 246.868 291.674 313.176 273.656 313.536 L 273.652 313.536 Z" fill="#FFF" stroke=" #00006f30" stroke-width="9" transform="matrix(0.999997, -0.002407, 0.002407, 0.999997, -0.584138, 0.645703)"/>
</svg>
