<?xml version="1.0" standalone="no"?>
<!DOCTYPE svg PUBLIC "-//W3C//DTD SVG 20010904//EN"
 "http://www.w3.org/TR/2001/REC-SVG-20010904/DTD/svg10.dtd">
<svg version="1.0" xmlns="http://www.w3.org/2000/svg"
 width="500.000000pt" height="500.000000pt" viewBox="0 0 500.000000 500.000000"
 preserveAspectRatio="xMidYMid meet">
<metadata>
Created by potrace 1.16, written by Peter Selinger 2001-2019
</metadata>
<g transform="translate(0.000000,500.000000) scale(0.100000,-0.100000)"
fill="#000000" stroke="none">
<path d="M2480 3954 c-19 -11 -52 -14 -130 -12 l-105 3 0 -160 0 -160 70 0
c39 0 89 -6 112 -13 37 -11 42 -16 45 -45 3 -36 -3 -35 117 -18 40 6 92 21
115 34 l41 22 3 168 c1 92 0 167 -2 167 -3 0 -27 -13 -52 -30 -53 -33 -101
-45 -140 -36 -24 6 -26 10 -22 51 4 50 -6 55 -52 29z"/>
<path d="M3081 3901 c-13 -10 -33 -16 -44 -13 -15 4 -18 1 -15 -14 2 -11 11
-18 21 -18 9 1 17 -5 17 -13 0 -10 -6 -12 -20 -8 -16 5 -20 2 -20 -14 0 -12 7
-21 15 -21 22 0 22 -125 0 -134 -22 -8 -44 -66 -38 -98 3 -15 16 -39 29 -53
13 -14 24 -38 24 -54 0 -38 17 -51 66 -51 61 0 74 8 74 42 0 19 11 43 30 65
22 25 30 44 30 72 0 31 -6 44 -30 64 -27 23 -30 31 -30 87 0 34 4 59 9 56 12
-8 34 21 26 34 -3 5 -14 10 -23 11 -12 0 -10 3 6 10 27 10 24 34 -4 34 -11 1
-31 8 -44 18 -31 22 -49 21 -79 -2z"/>
<path d="M1825 3861 c-72 -25 -136 -50 -143 -54 -8 -6 -12 -48 -12 -138 0
-118 -2 -129 -18 -129 -10 0 -29 -11 -41 -24 -32 -34 -26 -86 11 -104 36 -17
94 6 108 43 6 15 10 83 10 153 l0 127 78 29 c42 16 83 31 89 34 9 3 12 -17 10
-79 -2 -75 -4 -84 -22 -87 -31 -6 -65 -43 -65 -72 0 -36 19 -59 56 -66 24 -5
37 0 60 19 l29 25 0 183 c0 113 -4 183 -10 185 -5 1 -69 -19 -140 -45z"/>
<path d="M3464 3645 c-20 -30 -16 -49 37 -173 l40 -94 -25 -19 c-30 -24 -50
-79 -41 -119 9 -40 66 -88 115 -96 48 -8 64 -42 35 -74 -24 -27 -35 -25 -35 5
0 33 -38 52 -69 36 -15 -9 -21 -21 -21 -46 0 -43 35 -70 93 -70 32 0 45 7 69
34 26 29 29 40 26 80 -3 42 1 52 30 85 37 42 42 87 16 137 -15 30 -80 68 -117
69 -11 0 -24 14 -33 37 -14 33 -14 40 0 70 25 53 21 100 -13 134 -38 38 -84
39 -107 4z"/>
<path d="M1347 3488 c-35 -19 -50 -67 -42 -140 l6 -70 -49 -52 c-53 -56 -70
-106 -57 -166 9 -42 74 -108 114 -116 31 -7 32 -8 29 -57 -2 -29 -8 -52 -15
-55 -8 -2 -13 5 -13 15 0 26 -19 43 -50 43 -33 0 -50 -17 -50 -50 0 -71 100
-96 159 -41 27 26 31 35 31 84 0 51 2 55 30 67 44 18 84 90 76 134 -8 41 -56
96 -84 96 -52 0 -68 61 -27 100 34 32 50 94 36 140 -16 55 -61 87 -94 68z"/>
<path d="M2477 3454 c-4 -4 -7 -20 -7 -35 0 -25 -4 -28 -37 -31 -33 -3 -38 -6
-38 -28 0 -22 5 -25 37 -28 33 -3 37 -6 40 -35 5 -55 57 -46 58 10 0 17 7 22
33 25 26 2 33 8 35 30 3 24 0 27 -35 30 -33 3 -39 7 -43 33 -5 28 -28 44 -43
29z"/>
<path d="M1920 3311 c-97 -32 -186 -116 -217 -204 -23 -68 -22 -169 2 -233 22
-59 85 -147 122 -171 27 -18 23 -18 -167 -23 -217 -6 -252 -14 -319 -81 -62
-61 -76 -107 -76 -249 0 -69 3 -137 7 -152 12 -40 82 -123 116 -137 l31 -13 3
-371 c3 -366 3 -373 27 -424 27 -60 93 -126 154 -154 40 -18 78 -19 888 -19
949 0 895 -4 986 75 92 80 93 87 93 447 0 172 3 343 7 380 6 67 6 68 49 93 30
17 54 43 74 78 29 50 30 56 30 181 0 71 -5 146 -12 168 -16 56 -78 121 -140
149 -49 22 -69 24 -241 27 l-188 4 50 48 c177 175 144 452 -66 554 -113 56
-239 44 -343 -34 -62 -46 -82 -68 -112 -124 l-20 -40 -27 31 c-35 42 -81 63
-136 63 -55 0 -95 -19 -127 -60 l-24 -31 -31 49 c-35 56 -116 125 -183 155
-49 22 -168 32 -210 18z m199 -111 c45 -23 121 -104 147 -157 10 -21 20 -64
22 -95 l4 -58 -91 0 c-84 0 -94 2 -116 25 -20 19 -25 34 -25 73 0 40 -5 53
-28 75 -64 62 -133 56 -197 -15 -36 -40 -37 -42 -33 -109 4 -78 -7 -79 -22 -1
-25 132 45 253 164 283 45 12 132 2 175 -21z m948 15 c62 -18 139 -96 149
-151 8 -46 1 -161 -12 -174 -7 -7 -9 11 -6 53 4 59 2 64 -33 104 -44 52 -99
72 -143 54 -48 -20 -85 -66 -88 -108 -1 -21 -2 -44 -3 -50 -1 -7 -10 -22 -21
-33 -17 -17 -33 -20 -110 -20 l-90 0 0 48 c2 147 135 285 281 291 14 1 48 -6
76 -14z m-517 -140 c55 -28 60 -46 60 -207 l0 -148 -110 0 -110 0 0 149 c0
136 2 150 21 175 36 46 88 58 139 31z m-499 -476 c-12 -11 -26 -32 -32 -46 -5
-13 -9 -114 -9 -224 l0 -200 -137 3 -138 3 0 180 c0 153 3 185 18 212 41 76
77 91 221 92 l100 1 -23 -21z m577 -221 l-3 -243 -125 0 -125 0 -3 243 -2 242
130 0 130 0 -2 -242z m523 231 c47 -15 96 -72 106 -122 4 -23 7 -113 5 -199
l-3 -158 -135 0 -134 0 0 200 c0 210 -6 244 -49 277 -13 10 2 12 80 13 53 0
111 -5 130 -11z"/>
<path d="M3690 2921 c-5 -11 -10 -31 -10 -45 0 -23 -4 -26 -34 -26 -19 0 -38
-5 -41 -10 -11 -18 15 -40 46 -40 25 0 29 -4 29 -29 0 -32 22 -56 45 -47 9 3
15 18 15 40 0 33 2 35 38 38 30 2 38 7 40 26 3 20 -1 22 -37 22 -40 0 -41 1
-41 33 0 51 -30 74 -50 38z"/>
</g>
</svg>
