<?xml version="1.0" encoding="UTF-8" standalone="no"?>
<svg
   xmlns:dc="http://purl.org/dc/elements/1.1/"
   xmlns:cc="http://creativecommons.org/ns#"
   xmlns:rdf="http://www.w3.org/1999/02/22-rdf-syntax-ns#"
   xmlns:svg="http://www.w3.org/2000/svg"
   xmlns="http://www.w3.org/2000/svg"
   xmlns:sodipodi="http://sodipodi.sourceforge.net/DTD/sodipodi-0.dtd"
   xmlns:inkscape="http://www.inkscape.org/namespaces/inkscape"
   version="1.0"
   width="90.000000pt"
   height="90.000000pt"
   viewBox="0 0 1024.000000 1024.000000"
   preserveAspectRatio="xMidYMid meet"
   id="svg26"
   sodipodi:docname="image (10).svg"
   inkscape:version="1.0.2-2 (e86c870879, 2021-01-15)">
  <defs
     id="defs30" />
  <sodipodi:namedview
     pagecolor="#ffffff"
     bordercolor="#666666"
     borderopacity="1"
     objecttolerance="10"
     gridtolerance="10"
     guidetolerance="10"
     inkscape:pageopacity="0"
     inkscape:pageshadow="2"
     inkscape:window-width="1920"
     inkscape:window-height="991"
     id="namedview28"
     showgrid="false"
     inkscape:zoom="0.60058594"
     inkscape:cx="682.66667"
     inkscape:cy="682.66667"
     inkscape:window-x="-9"
     inkscape:window-y="-9"
     inkscape:window-maximized="1"
     inkscape:current-layer="svg26" />
  <metadata
     id="metadata2">
Created by potrace 1.16, written by Peter Selinger 2001-2019
<rdf:RDF>
  <cc:Work
     rdf:about="">
    <dc:format>image/svg+xml</dc:format>
    <dc:type
       rdf:resource="http://purl.org/dc/dcmitype/StillImage" />
  </cc:Work>
</rdf:RDF>
</metadata>
  <path
     d="m 513,298.1 c -11.3,7.1 -27.8,17.7 -36.7,23.5 L 460,332.2 v 59.2 59.2 l -8.3,1.5 c -11.1,2.1 -18.5,6 -25.2,13 -13.1,13.7 -15.4,32.8 -5.2,42.7 9.1,8.8 27.8,8.3 40.9,-1.1 6.5,-4.6 15.1,-15.6 18.4,-23.4 l 2.9,-6.8 0.3,-56.5 0.3,-56.6 15.7,-9.7 c 8.6,-5.3 20,-12.3 25.2,-15.5 l 9.5,-5.8 0.3,-23.7 c 0.1,-13 -0.1,-23.7 -0.5,-23.7 -0.5,0.1 -10,5.9 -21.3,13.1 z"
     id="path4"
     style="fill:#b9e6f0;stroke:none;stroke-width:0.1" />
  <path
     d="m 558.8,294.7 c -1.6,0.4 -1.8,1.9 -1.8,12.9 V 320 h 13.4 c 27,0 49,6.2 69.1,19.5 17,11.3 30.2,28.6 34,44.7 1.5,6.3 2.1,29.8 0.8,28.5 -0.3,-0.4 -0.8,-1.7 -0.9,-3 -0.1,-1.2 -0.8,-4.2 -1.4,-6.7 -0.6,-2.5 -1.1,-5 -1.2,-5.7 -0.1,-0.7 -0.5,-1 -0.9,-0.7 -0.5,0.2 -0.7,1 -0.5,1.7 0.1,0.7 0.1,0.9 -0.2,0.4 -0.2,-0.4 -1.6,-1.4 -3.2,-2.2 -2.5,-1.3 -2.8,-1.3 -3.9,0.8 -0.6,1.2 -0.9,1.4 -0.7,0.5 0.3,-1 0.1,-2 -0.5,-2.3 -1.2,-0.8 -0.2,-2.5 1.4,-2.5 0.7,0 0.6,0.4 -0.3,1.1 -1.2,0.8 -1,0.9 0.7,0.4 1.2,-0.3 2.4,-0.1 2.8,0.5 0.8,1.3 2.5,1.3 2.5,-0.1 0,-0.5 -0.5,-0.7 -1,-0.4 -0.6,0.3 -1.3,0 -1.6,-0.8 -0.3,-0.9 -1.8,-1.4 -3.7,-1.4 -1.8,0.1 -4,-0.2 -5,-0.6 -1.5,-0.5 -1.7,-0.3 -1.2,1.2 1.1,3.6 -4.6,5 -7.1,1.7 -1.3,-1.8 -5,-2.1 -5.9,-0.6 -0.8,1.3 -2.5,0.3 -2.4,-1.3 0,-0.9 0.2,-0.8 0.6,0.1 0.2,0.6 0.9,1 1.4,0.6 2.1,-1.2 0.6,-1.9 -4.6,-2 -3,-0.1 -5.5,0.2 -5.5,0.8 0,0.5 -0.5,0.6 -1.1,0.2 -0.8,-0.4 -0.9,0.1 -0.4,1.7 0.4,1.3 0.8,2.4 0.9,2.5 0,0 3.6,1.9 7.9,4.2 4.3,2.3 10.5,6.2 13.7,8.7 7.2,5.5 16.9,16.1 17.7,19.3 0.8,3.1 -5.9,16.5 -12.8,25.7 -8.7,11.4 -18.8,20.5 -34.2,30.5 -35.8,23.2 -134.5,84.8 -146.4,91.2 -35.8,19.4 -86.2,18.8 -119.2,-1.4 -3.8,-2.4 -9.9,-6.8 -13.5,-9.8 l -6.5,-5.5 v -6.3 c -0.3,-24.3 16.3,-51.6 46.4,-76.8 3.9,-3.2 6.9,-6.2 6.7,-6.6 -0.1,-0.4 0.2,-0.7 0.6,-0.6 1.9,0.7 8.1,-3.8 10.5,-7.6 1.4,-2.2 4.9,-6.3 7.6,-9.1 5.1,-4.9 5.1,-4.9 2.9,-6.2 -1.6,-0.8 -1.8,-1.2 -0.7,-1.3 0.8,0 2,0.5 2.6,1.1 1.5,1.5 12.9,-6.6 12.5,-8.9 -0.2,-1.4 -0.1,-1.4 0.7,-0.3 0.7,1.2 1.8,0.8 6,-1.8 4.9,-3.2 5.1,-3.5 5,-7.5 -0.2,-2.9 -0.3,-3.3 -0.6,-1.4 -0.2,1.6 -0.8,2.8 -1.2,2.8 -0.5,0 -1.1,1 -1.4,2.1 -0.5,2 -0.7,2 -2.2,0.5 -0.9,-0.9 -2.2,-1.6 -2.8,-1.6 -0.7,0 -0.6,0.5 0.3,1.1 1.2,0.8 0.7,0.9 -1.7,0.6 -2.5,-0.3 -3.4,0.1 -3.9,1.5 -0.3,1 -0.3,2.1 -0.1,2.5 0.3,0.5 -0.6,0.9 -1.9,0.9 -1.3,0.1 -3.6,0.5 -4.9,0.8 -2.1,0.5 -2.4,1 -1.5,2.6 1.3,2.4 1.3,4 -0.1,1.7 -0.5,-0.9 -1.7,-1.7 -2.5,-1.7 -1.2,0 -1.2,0.4 -0.4,2 1.2,2.2 0.1,2.7 -1.9,0.7 -1,-1 -1.5,-0.8 -2.7,0.7 -1.1,1.6 -1.1,2.2 -0.1,2.8 0.8,0.5 0.7,0.8 -0.5,0.8 -1,0 -1.8,-0.6 -1.9,-1.3 0,-0.6 -0.4,-0.3 -0.9,0.8 -0.5,1.1 -0.9,1.4 -0.9,0.7 -0.1,-0.6 -0.6,-1.2 -1.2,-1.2 -0.5,0 -0.7,0.5 -0.3,1.1 0.4,0.7 -0.1,0.7 -1.6,-0.1 -2.8,-1.5 -3.5,-0.8 -2,2.1 1.1,1.9 1,2.1 -0.3,1.6 -1.1,-0.4 -1.4,-0.1 -1.1,0.7 0.4,1 -0.5,1.2 -3.4,1 -3.5,-0.2 -3.9,0 -3.5,1.7 0.3,1 1,1.6 1.6,1.2 0.6,-0.3 0.7,-0.1 0.3,0.6 -0.6,0.9 -1.1,0.9 -2.3,0 -1,-0.9 -1.6,-1 -2.1,-0.2 -0.4,0.7 -1.6,1.1 -2.6,1 -1,-0.1 -2,0.4 -2.2,1.1 -0.1,0.7 0,0.8 0.3,0.2 0.7,-1.4 2,-1.3 2.6,0.2 0.6,1.6 -5,2.2 -5.9,0.6 -0.4,-0.7 -0.3,-0.8 0.4,-0.4 0.8,0.5 1,0.2 0.6,-0.8 -1.2,-3 -3.1,-1.4 -2.4,1.9 0.1,0.5 -1.1,-0.1 -2.7,-1.5 -2.1,-1.9 -2.3,-2 -1,-0.3 1.3,1.5 1.5,2.3 0.7,2.8 -0.7,0.4 -1.6,0.1 -2.1,-0.6 -0.6,-1 -0.9,-1.1 -0.9,-0.2 0,0.8 -1.3,1.3 -2.9,1.3 -1.6,0 -3.2,0.6 -3.5,1.2 -0.4,0.7 -0.4,0.3 -0.2,-0.8 0.2,-1.5 -0.1,-2.1 -1.1,-2 -1.8,0.3 -3.4,2.7 -2.6,4.1 0.4,0.5 0.3,0.7 -0.2,0.3 -0.4,-0.4 -1.4,-0.3 -2.2,0.3 -1,0.9 -1.3,0.8 -1.3,0 0,-0.7 -0.4,-0.9 -1,-0.6 -0.5,0.3 -1,0 -1,-0.7 0,-1.1 -0.2,-1.1 -0.9,0 -0.4,0.7 -1.7,1.5 -2.7,1.6 -1.1,0.2 -2,1.2 -2.2,2.4 -0.4,2.7 -0.9,2.7 -3.5,0.4 -1.1,-0.9 -1.7,-1.1 -1.3,-0.5 0.5,0.9 -0.1,1.3 -1.8,1.3 -1.4,0 -2.5,0.3 -2.5,0.7 0.6,3.6 -1,4.2 -3.7,1.6 -1.3,-1.3 -1.9,-1.4 -2.2,-0.5 -0.2,0.6 -1.3,1.2 -2.5,1.2 -4.7,0 -6.7,1.2 -6.8,3.9 -0.1,2.6 -0.1,2.6 -0.8,-0.3 l -0.6,-2.9 -1.8,3.8 c -2.7,5.7 -3.2,3.5 -0.7,-3.2 5.9,-15.8 15,-29.4 30.4,-45.2 18.4,-18.7 43,-36.9 70.8,-52.1 l 13.8,-7.5 v -15.3 c 0,-8.3 -0.2,-15.2 -0.5,-15.2 -0.8,0 -44,27.4 -59,37.3 -21.7,14.4 -40.4,30.1 -52.1,43.8 -22.7,26.6 -34.2,53.1 -36.3,83.3 -1.4,21.7 -0.3,26.9 22.6,107.1 8,28.3 8.9,30.2 20.2,43.3 16.1,18.7 43.8,33.6 71.9,38.8 4.8,0.9 16.6,1.9 26.2,2.1 19.8,0.6 33.8,-0.9 50,-5.4 7.9,-2.2 11.7,-2.7 22.5,-2.7 12.8,-0.1 13.1,-0.1 20.7,-3.8 7.5,-3.5 24.9,-14.2 69.8,-42.8 12.4,-7.9 32.6,-20.7 44.9,-28.4 25.9,-16.3 33,-22.3 40.2,-34.2 2.8,-4.6 5.4,-8.4 5.8,-8.4 3.8,0 19.4,-21 26.6,-35.9 8.7,-17.9 12.3,-30.2 14,-47.2 0.6,-6.2 0.1,-8.7 -7.5,-36.5 -9.7,-35.8 -12.9,-47.6 -16.6,-60.9 -5.7,-20.6 -12.8,-34.6 -24.2,-47.7 C 655.6,313 625.1,298.7 585,295.1 573.4,294 562,293.8 558.8,294.7 Z m 89.4,221.5 c 5.4,2.3 12.2,9.1 14.6,14.6 1,2.3 1.6,6.7 1.6,11.8 0.1,7.5 -0.2,8.6 -4.1,16.5 -6.7,13.6 -8.4,14.9 -63.3,49.2 -22.5,14.1 -53.5,33.7 -62.4,39.5 -12,7.8 -17.1,9.7 -25.6,9.7 -11.5,-0.1 -19,-4.5 -24,-14.3 -5.7,-11 -2.5,-29.6 7,-41.1 2.7,-3.3 7.8,-8 11.2,-10.4 8.8,-6.2 49.5,-32.4 83.1,-53.4 15.5,-9.7 30.3,-18.9 32.8,-20.5 7.9,-5 19.5,-5.6 29.1,-1.6 z"
     id="path6"
     style="fill:#b9e6f0;stroke:none;stroke-width:0.1" />
  <path
     d="m 619.3,544.7 c -1.2,0.2 -3.6,2 -5.3,3.9 -3.9,4.5 -4.2,10.9 -0.6,15.1 2,2.3 3.2,2.8 7.1,2.8 4.1,0 5.1,-0.4 8.1,-3.7 2.7,-3 3.4,-4.6 3.4,-7.9 0,-2.2 -0.5,-4.9 -1.1,-6.1 -1,-1.8 -6.8,-5 -8.6,-4.7 -0.4,0.1 -1.8,0.4 -3,0.6 z"
     id="path8"
     style="fill:#b9e6f0;stroke:none;stroke-width:0.1" />
  <path
     d="m 572.9,575 c -4.4,1.2 -6.8,3 -8.4,6 -4,7.7 0.4,16 8.4,16 3.3,0 4.9,-0.7 7.8,-3.4 3.2,-2.9 3.7,-3.9 3.7,-8.4 0.1,-7.6 -4.7,-12 -11.5,-10.2 z"
     id="path10"
     style="fill:#b9e6f0;stroke:none;stroke-width:0.1" />
  <path
     d="m 522.4,607 c -1.1,0.4 -3.3,2.2 -4.7,4 -6,7.1 -1.4,18 7.6,18 3.6,0 9.4,-4.6 10.7,-8.5 3,-9.1 -5,-17 -13.6,-13.5 z"
     id="path12"
     style="fill:#b9e6f0;stroke:none;stroke-width:0.1" />
  <path
     d="m 534.2,371.7 -0.2,11.1 -2.7,-0.5 c -8.6,-1.5 -11.3,-1.5 -11.3,0 0,2.4 -3.1,3 -3.7,0.7 -0.6,-2.4 -3.5,-2.6 -5.7,-0.5 -1.4,1.4 -1.6,1.3 -2.2,-1.2 -0.3,-1.5 -0.7,-3.3 -0.8,-3.8 -0.2,-0.6 -0.6,12.9 -1,29.9 -0.3,17 -0.5,31 -0.3,31.2 0.4,0.4 17.5,-10.3 21.8,-13.7 6.8,-5.3 7,-6.4 6.6,-37.1 -0.1,-15 -0.3,-22.3 -0.5,-16.1 z"
     id="path14"
     style="fill:#b9e6f0;stroke:none;stroke-width:0.1" />
</svg>
