<?xml version="1.0" standalone="no"?>
<!DOCTYPE svg PUBLIC "-//W3C//DTD SVG 20010904//EN"
 "http://www.w3.org/TR/2001/REC-SVG-20010904/DTD/svg10.dtd">
<svg version="1.0" xmlns="http://www.w3.org/2000/svg"
 width="60.000000pt" height="60.000000pt" viewBox="0 0 1024.000000 1024.000000"
 preserveAspectRatio="xMidYMid meet">
<metadata>
Created by potrace 1.16, written by Peter Selinger 2001-2019
</metadata>
<g transform="translate(0.000000,1024.000000) scale(0.100000,-0.100000)"
fill="#000000" stroke="none">
<path d="M5140 8284 c-305 -65 -493 -383 -390 -657 38 -100 135 -232 265 -363
66 -66 146 -140 178 -164 l58 -43 32 18 c169 97 433 400 496 568 41 113 21
280 -47 387 -61 96 -129 158 -226 205 -130 64 -234 78 -366 49z m185 -239 c22
-21 25 -33 25 -103 0 -47 5 -83 12 -90 7 -7 42 -12 89 -12 74 0 78 -1 103 -31
45 -53 27 -126 -36 -148 -17 -6 -59 -11 -93 -11 -74 0 -75 -2 -75 -99 0 -90
-22 -121 -83 -121 -26 0 -52 8 -67 20 -23 17 -25 27 -29 107 -2 51 -8 91 -15
96 -6 4 -41 6 -77 5 -75 -2 -113 15 -130 59 -12 32 -4 61 29 96 23 24 33 27
86 27 105 0 104 -1 108 95 3 72 6 87 27 109 33 35 92 36 126 1z"/>
<path d="M6274 7734 c-36 -18 -54 -51 -54 -100 0 -28 8 -44 34 -70 36 -36 55
-40 105 -23 79 28 82 157 6 194 -41 19 -52 19 -91 -1z"/>
<path d="M4000 7525 c-134 -45 -234 -85 -249 -98 -48 -44 -51 -68 -51 -350 l0
-264 -46 -6 c-82 -9 -144 -76 -144 -155 0 -59 37 -124 84 -146 52 -24 131 -21
181 9 81 47 79 37 85 417 5 321 6 338 25 357 21 20 255 101 293 101 l22 0 -2
-202 -3 -203 -47 -7 c-62 -8 -101 -37 -128 -94 -84 -173 151 -318 285 -175 52
54 53 69 54 444 1 368 0 378 -47 420 -41 37 -75 32 -312 -48z"/>
<path d="M6946 7578 c-9 -12 -16 -28 -16 -35 0 -7 -11 -37 -24 -67 -32 -72
-107 -151 -176 -186 -30 -15 -264 -98 -520 -184 -256 -87 -498 -174 -539 -194
-133 -66 -218 -161 -262 -297 l-23 -70 -4 -833 -3 -832 -62 44 c-79 56 -147
91 -228 115 -145 44 -245 51 -380 25 -287 -54 -516 -241 -622 -506 -40 -99
-51 -162 -51 -288 0 -210 72 -384 225 -544 130 -136 268 -212 440 -242 182
-32 370 -4 534 79 216 108 380 315 446 562 21 79 21 90 20 951 -1 744 1 873
13 883 13 11 172 67 773 271 339 116 386 143 475 279 79 121 78 115 78 616 0
415 -1 443 -18 458 -26 23 -58 21 -76 -5z"/>
<path d="M3015 7058 c-58 -46 -63 -130 -10 -175 31 -27 90 -31 123 -7 26 18
52 65 52 94 0 34 -28 78 -60 95 -40 21 -72 19 -105 -7z"/>
<path d="M7423 7065 c-95 -41 -71 -188 33 -202 23 -3 51 0 63 7 28 15 61 68
61 99 0 36 -37 88 -72 100 -39 14 -46 13 -85 -4z"/>
<path d="M4667 6670 c-48 -38 -44 -130 7 -165 47 -34 126 -12 151 42 19 40 10
81 -27 120 -28 30 -94 32 -131 3z"/>
<path d="M2622 6417 c-27 -28 -29 -83 -4 -113 26 -33 248 -134 293 -134 51 0
95 58 84 109 -10 45 -44 68 -166 116 -130 51 -175 56 -207 22z"/>
<path d="M7697 6390 c-71 -27 -135 -57 -142 -67 -37 -49 -20 -124 33 -145 51
-20 328 88 350 137 19 40 14 74 -13 100 -35 36 -79 31 -228 -25z"/>
<path d="M4525 6221 c-115 -37 -225 -75 -243 -85 -55 -28 -62 -61 -62 -271 0
-184 0 -185 -22 -185 -62 0 -136 -63 -151 -130 -17 -72 50 -171 125 -185 67
-13 157 29 191 89 8 14 14 101 17 273 3 154 9 256 15 262 6 6 58 24 115 41
177 50 282 87 302 108 11 10 22 37 25 60 5 34 1 44 -20 66 -16 16 -37 26 -54
26 -15 -1 -122 -31 -238 -69z"/>
<path d="M3273 5915 c-37 -16 -63 -60 -63 -106 0 -48 56 -99 108 -99 115 0
150 155 47 204 -40 19 -51 19 -92 1z"/>
<path d="M7184 5920 c-39 -16 -64 -59 -64 -110 0 -42 4 -52 32 -75 28 -23 39
-27 81 -22 62 6 88 30 94 91 7 56 -13 91 -62 112 -39 16 -51 16 -81 4z"/>
<path d="M4658 5830 c-27 -28 -30 -36 -25 -76 7 -64 37 -94 95 -94 61 0 102
40 102 100 0 92 -106 135 -172 70z"/>
<path d="M2509 5747 c-43 -28 -69 -80 -69 -135 0 -89 64 -154 154 -156 62 -1
95 17 134 75 31 44 28 129 -6 176 -45 63 -149 83 -213 40z"/>
<path d="M7862 5753 c-62 -30 -101 -108 -88 -177 9 -46 61 -101 112 -116 78
-23 168 25 194 106 42 125 -99 246 -218 187z"/>
<path d="M3699 5737 c-49 -37 -53 -115 -9 -159 27 -27 36 -30 71 -25 48 6 68
21 86 65 17 42 3 93 -32 116 -29 19 -93 21 -116 3z"/>
<path d="M6465 5685 c-19 -19 -25 -35 -25 -72 -1 -61 -11 -197 -15 -201 -2 -2
-56 -6 -120 -9 -105 -5 -120 -9 -146 -30 -40 -34 -40 -81 0 -125 l29 -33 114
-1 c62 -1 119 -2 126 -3 10 -1 11 -24 6 -104 -7 -115 3 -167 39 -192 34 -23
80 -19 108 11 22 24 24 35 29 152 l5 127 118 5 c110 5 119 7 143 32 39 38 39
101 1 134 -26 22 -37 24 -136 24 -70 0 -111 4 -119 12 -8 8 -12 52 -12 130 0
113 -1 120 -25 143 -16 17 -35 25 -60 25 -25 0 -44 -8 -60 -25z"/>
<path d="M3689 5361 c-60 -60 -27 -156 57 -168 33 -4 45 -1 72 22 75 63 36
174 -61 175 -29 0 -46 -7 -68 -29z"/>
<path d="M2603 5068 c-65 -70 -108 -134 -148 -221 -45 -98 -59 -168 -53 -270
6 -112 44 -194 134 -283 97 -97 131 -97 231 -1 45 43 75 83 101 136 36 74 37
77 36 191 0 104 -3 123 -32 199 -54 144 -160 301 -202 301 -9 0 -39 -24 -67
-52z"/>
<path d="M7737 5069 c-58 -66 -122 -179 -154 -271 -47 -137 -32 -291 41 -406
59 -93 148 -172 196 -172 68 0 186 121 231 238 67 174 -8 422 -184 610 -28 28
-58 52 -68 52 -9 0 -37 -23 -62 -51z"/>
<path d="M6305 4485 c-22 -21 -25 -33 -25 -103 l0 -79 -97 -6 c-86 -5 -99 -8
-122 -31 -34 -35 -34 -87 1 -123 24 -23 35 -26 120 -29 l93 -4 5 -86 c4 -75 8
-88 29 -105 36 -30 84 -25 115 12 23 27 26 40 26 104 0 86 -1 85 110 85 73 0
80 2 99 26 28 36 27 86 -3 121 -23 26 -30 28 -115 31 l-91 4 0 78 c0 63 -4 82
-21 104 -28 36 -89 37 -124 1z"/>
<path d="M7595 4150 c-120 -24 -272 -113 -349 -204 -25 -29 -58 -79 -73 -112
-24 -50 -28 -74 -31 -165 -6 -173 28 -215 171 -208 99 6 185 48 260 129 97
104 132 204 143 404 6 117 6 124 -15 145 -22 22 -40 24 -106 11z"/>
<path d="M2750 4134 c-20 -23 -17 -207 5 -300 59 -255 315 -438 507 -363 36
14 58 65 65 148 18 210 -122 401 -362 496 -90 36 -194 45 -215 19z"/>
<path d="M3315 3375 c-175 -32 -211 -67 -161 -158 115 -212 317 -374 501 -400
132 -19 264 15 293 76 20 41 0 162 -39 239 -101 201 -326 293 -594 243z"/>
<path d="M6875 3377 c-158 -42 -291 -163 -336 -306 -23 -75 -25 -168 -4 -198
35 -50 203 -76 318 -49 138 32 251 110 354 242 80 105 127 195 119 228 -13 51
-119 85 -286 91 -76 3 -132 0 -165 -8z"/>
<path d="M5195 3223 c-36 -9 -87 -55 -106 -97 -15 -32 -19 -65 -19 -153 l0
-113 -120 0 c-99 0 -127 -3 -158 -19 -133 -68 -149 -233 -33 -333 50 -43 73
-48 207 -48 l104 0 0 -107 c1 -149 25 -201 113 -238 87 -36 191 -5 239 72 20
33 23 53 27 156 l3 117 72 1 c64 0 129 3 178 8 26 2 87 59 108 102 32 62 35
110 11 165 -47 106 -82 124 -244 124 l-125 0 -4 118 c-5 123 -15 158 -60 198
-51 47 -121 64 -193 47z"/>
<path d="M4177 2799 c-23 -13 -47 -62 -47 -94 0 -34 25 -82 49 -95 28 -15 77
-12 111 5 98 51 57 196 -54 195 -22 0 -49 -5 -59 -11z"/>
<path d="M6217 2799 c-24 -14 -47 -62 -47 -98 0 -70 98 -124 156 -86 33 21 57
78 49 116 -14 61 -103 100 -158 68z"/>
</g>
</svg>
