<?xml version="1.0" encoding="UTF-8" standalone="no"?>
<svg
   xmlns:dc="http://purl.org/dc/elements/1.1/"
   xmlns:cc="http://creativecommons.org/ns#"
   xmlns:rdf="http://www.w3.org/1999/02/22-rdf-syntax-ns#"
   xmlns:svg="http://www.w3.org/2000/svg"
   xmlns="http://www.w3.org/2000/svg"
   xmlns:sodipodi="http://sodipodi.sourceforge.net/DTD/sodipodi-0.dtd"
   xmlns:inkscape="http://www.inkscape.org/namespaces/inkscape"
   version="1.0"
   width="60.000000pt"
   height="60.000000pt"
   viewBox="0 0 1024.000000 1024.000000"
   preserveAspectRatio="xMidYMid meet"
   id="svg12"
   sodipodi:docname="image (7).svg"
   inkscape:version="1.0.2-2 (e86c870879, 2021-01-15)">
  <defs
     id="defs16" />
  <sodipodi:namedview
     pagecolor="#ffffff"
     bordercolor="#666666"
     borderopacity="1"
     objecttolerance="10"
     gridtolerance="10"
     guidetolerance="10"
     inkscape:pageopacity="0"
     inkscape:pageshadow="2"
     inkscape:window-width="2400"
     inkscape:window-height="1261"
     id="namedview14"
     showgrid="false"
     inkscape:zoom="0.60058594"
     inkscape:cx="682.66667"
     inkscape:cy="683.49244"
     inkscape:window-x="2391"
     inkscape:window-y="-9"
     inkscape:window-maximized="1"
     inkscape:current-layer="svg12"
     inkscape:document-rotation="0" />
  <metadata
     id="metadata2">
Created by potrace 1.16, written by Peter Selinger 2001-2019
<rdf:RDF>
  <cc:Work
     rdf:about="">
    <dc:format>image/svg+xml</dc:format>
    <dc:type
       rdf:resource="http://purl.org/dc/dcmitype/StillImage" />
  </cc:Work>
</rdf:RDF>
</metadata>
  <g
     transform="matrix(0.1,0,0,-0.1,-66.456271,989.13783)"
     fill="#000000"
     stroke="none"
     id="g10">
    <path
       id="path4"
       style="stroke-width:0.133333"
       transform="matrix(7.4999998,0,0,-7.4999998,664.56271,9891.3783)"
       d="m 578.44727,273.71484 c -4.57058,-0.004 -8.95053,0.23633 -13.05469,0.73633 -60.13334,7.33334 -106.13346,42.53177 -123.4668,94.39844 -3.06667,9.06667 -3.06823,10.66758 -3.60156,68.26758 -0.26667,42.53333 -0.79857,59.0664 -1.86524,59.0664 -5.2,0 -49.06705,7.60013 -66.40039,11.4668 -90,20.26667 -130.66718,40.79974 -147.86718,75.06641 -6.8,13.2 -6.93217,14.93346 -6.79883,75.46679 0,55.73334 0.13307,56.80118 3.0664,65.20118 6.66667,18.26666 16.13282,29.86523 34.13282,41.86523 28.53333,19.06667 83.60013,36.00026 151.46679,46.93359 14,2.26667 27.19961,4.39935 29.59961,4.66602 l 4.26758,0.80078 0.5332,61.59961 c 0.53334,67.86667 0.53295,67.46641 9.59961,87.06641 24.4,53.06669 84.2655,85.46729 146.79883,79.33399 54.13334,-5.3333 94.13503,-31.734 117.06836,-77.33399 8.8,-17.46667 10.13281,-25.46615 10.13281,-62.13282 0,-17.73333 0.40026,-44.79947 0.9336,-60.13281 l 0.79883,-28 16.80078,-2.40039 c 42.66666,-6.13333 91.06614,-16.79974 122.13281,-27.06641 15.2,-4.93333 33.73398,-13.59973 45.33398,-21.0664 14.26667,-9.2 31.86667,-31.33451 36,-45.20117 2.93334,-9.6 2.93334,-117.99935 0,-128.66602 -2.8,-10.93333 -8.13359,-20.26667 -16.93359,-30 -17.86667,-19.73333 -41.60013,-31.73281 -91.4668,-46.13281 -21.46666,-6.13334 -73.3332,-16.40078 -94.5332,-18.80078 -8.26667,-0.93334 -15.46758,-2.00039 -16.26758,-2.40039 -0.66666,-0.53334 -1.7332,-26.93282 -2.5332,-62.13282 -1.33333,-68.26666 -0.79961,-64.13372 -11.59961,-86.40039 -10,-20.26666 -33.9987,-44.40013 -55.33203,-55.46679 -22.05,-11.475 -52.2642,-18.58245 -76.94531,-18.60157 z m -2.11524,40.26172 c 2.56328,-0.004 5.34258,0.0242 8.39258,0.0742 20.8,0.26667 22.66614,0.53373 34.13281,4.40039 31.86667,11.06667 55.46667,33.99844 64,62.39844 2.26667,7.46667 2.40182,16.40156 2.53516,127.60156 v 119.73242 h -9.60156 -9.4668 l -4.13281,-7.19921 C 653.25807,604.98437 638.05742,600.85 626.85742,611.25 c -3.73333,3.6 -5.46484,7.20091 -9.46484,20.26758 -2.66667,8.8 -5.20156,16.93333 -5.60156,18 -1.2,3.06666 -2.5323,-5.6 -6.26563,-42 -7.2,-69.86667 -6.53294,-66.4013 -13.59961,-72.66797 -3.86667,-3.33333 -5.7345,-4 -11.20117,-4 -5.46667,0 -7.33203,0.66808 -11.33203,4.13477 -5.86667,5.2 -6.53334,7.86588 -10,41.19921 -3.46667,33.6 -8.13464,73.86706 -8.66797,74.40039 -0.26667,0.26667 -0.79974,-0.66666 -1.06641,-2 -8,-27.2 -10.79922,-34.66601 -15.19922,-38.66601 -11.33333,-10.8 -26.66757,-6.26836 -36.26757,10.93164 l -4.13282,7.33398 h -9.46679 -9.33399 l 0.40039,-121.0664 0.40039,-120.9336 3.4668,-9.59961 c 4.8,-13.06666 9.60039,-20.93281 18.40039,-30.13281 9.6,-10.13333 24.00013,-19.60026 37.4668,-24.93359 15.63333,-5.95 22.99648,-7.51185 40.93945,-7.54102 z M 438.05859,537.51758 v 50 49.86719 l -67.59961,0.39843 -67.73437,0.40039 -16,5.06641 c -8.8,2.8 -20.39961,7.46706 -25.59961,10.40039 l -9.73242,5.33399 V 635.7832 c 0,-26.8 1.33164,-33.46562 8.93164,-42.26562 11.2,-13.06667 32.66653,-23.46784 72.5332,-35.20117 29.33334,-8.66667 49.73385,-13.06524 91.86719,-19.86524 1.86667,-0.26666 5.60039,-0.66745 8.40039,-0.80078 z m 285.33399,0 h 3.33203 c 1.73333,0 9.99948,0.93281 18.13281,2.13281 23.86667,3.33333 63.86849,11.86693 88.53516,18.93359 35.33333,10.26667 53.19948,18.93321 66.13281,32.53321 9.33333,9.73333 10.5332,14.80065 10.5332,43.33398 0,12.66667 -0.26653,23.06641 -0.5332,23.06641 -0.26667,0 -6.13359,-2.66719 -12.93359,-5.86719 -6.93334,-3.33333 -17.86654,-7.59961 -24.53321,-9.59961 l -12,-3.73437 -68.66601,-0.79883 -68.66797,-0.66797 v -12.39844 c 0,-6.66666 0.13372,-29.06823 0.40039,-49.60156 z m -141.9336,107.05273 c 0.0237,-0.0112 0.0456,-0.007 0.0664,0.0137 0.26667,0.13334 1.73255,13.33308 3.19922,29.06641 1.46667,15.6 3.60078,31.06615 4.80078,34.13281 5.33333,14.4 21.86602,17.86758 30.66602,6.26758 3.6,-4.53333 10.40065,-25.20104 17.33398,-51.73437 l 3.73242,-14.53321 3.86719,4.53321 c 2,2.53333 5.73281,6.80156 8.13281,9.60156 l 4.53321,5.06641 13.73437,-0.26758 13.86719,-0.26563 0.13281,87.19922 c 0.13333,48 -0.13463,109.06719 -0.66797,135.86719 l -0.93164,48.66601 -3.60156,8.66602 c -4.8,11.46667 -18.9332,30.4 -28.5332,38 -10,8 -22.7987,14.40026 -37.33204,18.93359 -10.8,3.2 -13.60104,3.6001 -33.73437,3.4668 -20,0 -23.06576,-0.2668 -33.73242,-3.4668 -29.06667,-8.93333 -50.93412,-26.26666 -62.80078,-50 -9.06667,-18 -8.79883,-14.00012 -8.79883,-157.46679 v -129.4668 h 13.19922 c 7.33333,0 14.13398,-0.39883 15.33398,-0.79883 1.06667,-0.4 4.79896,-4.66732 8.26563,-9.33398 3.46666,-4.66667 6.66783,-8.53321 7.20117,-8.53321 0.4,0 4.39935,12.80091 8.66601,28.26758 8.66667,31.46667 10.80039,36.93216 16.40039,40.79883 8,5.73333 14.66667,5.46693 22,-1.06641 5.6,-4.8 6.79961,-9.33398 9.59961,-33.33398 2.58334,-22.34583 4.66664,-37.93292 5.40039,-38.2793 z m -144.0664,32.2793 0.39844,49.20117 c 0.13333,27.06667 10e-4,49.46576 -0.26563,49.73242 -0.93333,0.93334 -32.79961,-3.59909 -53.59961,-7.73242 -52,-10.13333 -98.00065,-26.13281 -115.33398,-40.13281 -8.26667,-6.66667 -14.93334,-16.40039 -14,-20.40039 2.13333,-8.26667 20.26692,-19.99948 40.93359,-26.13281 9.46667,-2.93334 12.53385,-3.06771 75.86719,-3.73438 z m 286.26562,0.53516 66.26758,0.5332 c 62.26667,0.4 66.66524,0.66588 75.86524,3.19922 5.33333,1.6 14.00065,4.93346 19.33398,7.46679 10.4,4.93334 23.59961,15.86732 23.59961,19.33399 0,6.26667 -13.59896,21.06601 -26.26563,28.66601 -16.66666,10 -52.53372,21.7336 -88.40039,28.9336 -24.53333,4.93333 -69.20039,12.2668 -70.40039,11.4668 -1.33333,-0.80003 -2.13359,-73.86719 -0.93359,-87.86719 z" />
    <path
       id="path8"
       style="stroke-width:0.133333"
       transform="matrix(7.4999998,0,0,-7.4999998,664.56271,9891.3783)"
       d="m 599.84961,856.94531 c -0.33805,0.0403 -0.67635,0.0787 -1.01367,0.125 -0.24956,0.58758 -0.46221,1.19445 -0.6836,1.79688 0.36525,0.13762 0.73184,0.26882 1.09375,0.42187 0.48417,0.18271 0.9709,0.35937 1.45703,0.53711 0.57324,-0.42353 1.08973,-0.82498 1.58008,-1.22461 -0.28612,-0.15776 -0.64162,-0.37261 -1.18359,-0.73633 -0.52856,-0.35472 -0.92318,-0.65358 -1.25,-0.91992 z" />
  </g>
  <path
     d="m 463.50688,582.12058 c -26.87176,13.44543 -50.56343,27.67258 -52.63049,31.26845 -1.59004,2.97051 -1.90805,10.63128 -1.59004,31.1121 l 0.47701,27.04722 h -5.72416 c -16.37746,0 -26.71275,15.1652 -20.67058,30.64308 6.20117,16.10326 29.57483,15.63423 38.47908,-0.93805 3.4981,-6.41004 3.65711,-8.59883 3.65711,-38.14752 l 0.159,-31.42479 16.69547,-9.22418 c 24.00968,-13.13275 22.89665,-13.2891 22.89665,1.8761 v 12.66371 l -6.67819,3.59587 c -12.87936,6.87906 -17.49049,19.85547 -10.97131,30.48675 5.40615,8.75517 20.51158,8.91151 27.82579,0.31268 6.83719,-7.97345 7.79122,-14.85251 6.83719,-51.74927 -0.79502,-35.02067 -1.11303,-37.05312 -7.63221,-40.33631 -1.90806,-1.0944 -5.08815,-0.31269 -11.13032,2.81416 z"
     id="path32"
     style="fill:#000000;stroke:none;stroke-width:0.157668" />
</svg>
