<?xml version="1.0" standalone="no"?>
<!DOCTYPE svg PUBLIC "-//W3C//DTD SVG 20010904//EN"
 "http://www.w3.org/TR/2001/REC-SVG-20010904/DTD/svg10.dtd">
<svg version="1.0" xmlns="http://www.w3.org/2000/svg"
 width="48.000000pt" height="48.000000pt" viewBox="0 0 1024.000000 1024.000000"
 preserveAspectRatio="xMidYMid meet">
<metadata>
Created by potrace 1.16, written by Peter Selinger 2001-2019
</metadata>
<g transform="translate(0.000000,1024.000000) scale(0.100000,-0.100000)"
fill="#b9e6f0" stroke="none">
<path d="M4589 8087 c-69 -29 -105 -54 -154 -108 -47 -52 -83 -130 -95 -206
-6 -32 -10 -257 -10 -500 l0 -442 -57 -11 c-337 -70 -615 -337 -683 -658 -16
-76 -19 -150 -22 -607 -2 -286 -1 -662 2 -835 6 -304 8 -318 33 -403 54 -177
161 -342 291 -448 80 -66 240 -144 349 -171 l87 -21 0 -481 c0 -265 5 -510 10
-545 18 -127 108 -249 225 -307 l60 -29 508 -3 c551 -3 571 -2 656 52 56 36
130 121 159 184 l27 57 3 537 3 536 41 7 c123 21 299 106 405 195 157 132 274
343 303 548 8 53 10 330 8 882 -3 800 -4 805 -26 875 -84 266 -248 452 -505
576 -45 21 -114 47 -154 57 l-72 17 -3 490 -3 490 -32 68 c-39 82 -110 154
-190 194 l-58 28 -525 2 -525 3 -56 -23z m1082 -210 c27 -14 57 -42 77 -71
l32 -48 0 -454 0 -454 -548 0 c-302 0 -583 -3 -625 -6 l-77 -7 0 449 0 449 24
50 c26 57 47 78 96 99 30 13 109 15 506 16 l471 0 44 -23z m-184 -1248 c-10
-6 -28 -8 -40 -5 -30 7 -93 -8 -90 -21 1 -6 -4 -17 -12 -23 -17 -14 -20 -60
-5 -60 6 0 10 -9 10 -20 0 -11 -4 -20 -10 -20 -5 0 -10 -6 -10 -14 0 -10 13
-16 38 -19 20 -2 -201 -4 -493 -5 -320 -1 -544 -6 -566 -12 -20 -6 -53 -23
-73 -39 -21 -17 -42 -31 -48 -33 -6 -2 1 -16 15 -31 52 -51 23 -139 -50 -153
-28 -6 -38 -1 -67 28 l-35 35 -45 -46 c-89 -91 -86 -64 -86 -663 0 -521 0
-528 -20 -528 -11 0 -20 -4 -20 -10 0 -5 -9 -10 -20 -10 -11 0 -20 -4 -20 -10
0 -5 -11 -10 -24 -10 -23 0 -24 -4 -30 -82 -3 -46 -8 -99 -9 -118 -2 -19 -3
278 -3 660 l1 695 26 72 c82 224 251 377 476 432 72 18 122 20 653 20 410 0
570 -3 557 -10z m-624 -454 c86 -18 171 -63 244 -130 l58 -53 62 58 c214 201
547 185 768 -36 141 -141 205 -341 175 -545 -14 -98 -43 -175 -96 -255 -35
-52 -862 -886 -901 -908 -16 -9 -1 -23 -603 569 -329 323 -359 362 -402 500
-29 91 -30 267 -4 365 42 156 168 318 304 388 111 59 258 76 395 47z m-445
-1627 c75 -46 105 -160 59 -229 -37 -55 -81 -79 -146 -79 -69 0 -121 31 -151
90 -34 66 -21 137 35 191 60 59 133 69 203 27z m1658 -9 c46 -28 78 -98 71
-156 -6 -52 -29 -88 -78 -121 -28 -20 -44 -23 -90 -20 -96 7 -152 66 -153 164
-2 125 141 201 250 133z m-1461 -972 c4 5 5 2 1 -5 -9 -15 92 -124 107 -115 6
3 7 2 4 -4 -8 -13 57 -76 68 -66 4 5 5 3 1 -4 -3 -6 2 -18 12 -25 11 -7 22
-22 26 -34 7 -24 50 -47 75 -40 11 3 27 -10 49 -40 18 -24 37 -42 43 -39 5 4
8 1 7 -6 -2 -7 7 -18 20 -24 12 -5 22 -15 22 -22 0 -6 4 -13 10 -15 5 -1 34
-27 65 -57 30 -29 55 -50 55 -45 0 16 29 -31 30 -48 0 -21 38 -58 59 -58 41 0
67 64 37 90 -8 6 -12 19 -9 27 5 13 2 15 -17 10 -14 -3 -39 1 -58 10 -34 16
-34 17 -12 25 32 12 22 16 -27 10 -24 -2 -40 -8 -37 -13 9 -16 -2 -10 -20 10
-17 18 -16 19 35 14 38 -4 49 -2 44 7 -6 9 -2 9 14 1 12 -7 27 -9 33 -5 8 5 9
1 5 -12 -7 -18 -7 -18 8 0 11 14 15 16 15 5 0 -12 2 -12 10 1 5 8 12 11 16 7
4 -4 -1 -17 -12 -29 -16 -20 -15 -20 9 2 21 18 26 20 21 7 -4 -12 -1 -17 10
-17 19 0 21 -16 4 -23 -19 -8 13 -28 34 -21 9 2 19 0 23 -6 3 -6 12 -7 18 -4
8 5 8 3 0 -7 -16 -16 -17 -51 -1 -67 8 -8 8 -15 -3 -28 -8 -10 -9 -15 -3 -11
7 4 15 0 18 -8 4 -12 2 -14 -11 -6 -11 6 -24 6 -35 0 -9 -5 -27 -7 -40 -5 -13
3 -29 5 -36 5 -7 1 -10 6 -7 11 3 6 2 10 -3 10 -16 0 -22 -13 -11 -26 6 -7 9
-19 6 -26 -4 -8 -6 -7 -6 5 -1 9 -8 17 -16 17 -10 0 -12 6 -8 18 6 15 5 15
-10 3 -15 -12 -17 -11 -17 8 0 14 -4 20 -12 15 -6 -4 -8 -3 -4 4 3 6 1 14 -5
18 -8 4 -9 -3 -4 -24 6 -28 4 -30 -16 -25 -18 5 -21 3 -16 -10 3 -9 2 -19 -3
-22 -10 -6 -15 14 -12 48 1 9 -3 17 -9 17 -5 0 -7 -5 -3 -12 5 -7 2 -9 -8 -6
-9 4 -26 -4 -42 -18 -14 -14 -26 -20 -26 -14 0 6 -4 8 -10 5 -5 -3 -10 -3 -10
2 0 13 14 28 30 31 61 14 55 102 -7 102 -45 0 -67 -48 -37 -81 24 -26 10 -61
-22 -53 -14 4 -24 2 -24 -5 0 -22 -18 -10 -26 17 -5 20 -8 23 -11 10 -6 -26
-23 -22 -24 5 0 18 -3 15 -15 -13 -8 -19 -13 -26 -10 -14 3 18 -2 21 -33 22
-31 0 -41 -6 -71 -42 -49 -60 -94 -89 -175 -116 -38 -13 -76 -25 -82 -28 -10
-3 -13 92 -13 454 l0 458 38 -37 c21 -21 42 -34 47 -30z"/>
<path d="M4961 5753 c-15 -12 -38 -68 -70 -168 l-49 -150 -204 -5 c-153 -4
-209 -8 -221 -19 -23 -19 -21 -67 3 -91 19 -19 33 -20 260 -20 l239 0 15 28
c8 15 24 61 36 102 13 41 26 78 29 83 4 4 42 -100 85 -232 43 -133 85 -246 95
-255 44 -40 100 -5 121 74 31 120 73 242 80 229 4 -8 13 -38 20 -66 15 -67 43
-103 79 -103 39 0 59 27 63 85 l3 50 181 5 c133 4 185 9 198 19 20 17 21 60 2
87 -13 17 -31 19 -227 24 l-212 5 -23 88 c-13 48 -28 97 -34 107 -16 30 -58
37 -80 14 -10 -11 -42 -99 -71 -196 -28 -98 -55 -178 -58 -178 -3 0 -39 104
-80 230 -41 126 -83 239 -93 250 -23 25 -59 26 -87 3z"/>
<path d="M4863 3212 c-28 -4 -53 -38 -53 -70 0 -32 43 -72 77 -72 42 1 67 25
67 65 0 53 -38 86 -91 77z"/>
<path d="M3859 7695 c-73 -40 -38 -155 47 -155 26 0 74 56 74 85 0 31 -49 85
-77 85 -10 -1 -30 -7 -44 -15z"/>
<path d="M6505 7625 c-104 -49 -137 -161 -76 -257 64 -100 188 -114 272 -29
65 65 72 150 17 231 -44 64 -141 89 -213 55z"/>
<path d="M3580 7430 c-12 -7 -11 -13 10 -35 13 -14 29 -24 35 -21 8 3 11 -11
11 -37 -1 -59 -44 -99 -101 -95 -22 2 -40 9 -40 15 0 30 -11 18 -13 -15 -2
-20 -10 -44 -18 -53 -13 -15 -13 -17 1 -23 9 -3 14 -10 11 -15 -7 -11 46 -31
80 -31 13 0 24 5 24 11 0 6 7 8 16 5 25 -10 92 32 121 75 29 45 48 159 23 144
-9 -5 -11 -4 -6 4 12 18 -3 49 -22 47 -18 -3 -52 12 -64 29 -5 6 -8 4 -8 -5 0
-8 -9 -21 -19 -27 -17 -11 -20 -9 -23 12 -2 19 -6 22 -18 15z"/>
<path d="M7260 7241 c-48 -15 -85 -39 -121 -78 -59 -61 -74 -98 -74 -183 0
-84 13 -116 72 -181 103 -114 275 -118 383 -10 130 131 94 343 -73 428 -54 27
-143 39 -187 24z m154 -172 c65 -56 65 -137 1 -187 -41 -33 -86 -37 -138 -14
-127 56 -85 231 55 232 39 0 54 -6 82 -31z"/>
<path d="M2772 6871 c-102 -35 -170 -118 -180 -219 -19 -200 189 -344 373
-258 210 97 186 408 -36 479 -65 21 -91 21 -157 -2z m132 -141 c55 -21 85
-119 50 -168 -20 -29 -66 -52 -104 -52 -70 0 -120 49 -120 118 0 37 6 50 34
78 27 27 42 34 74 34 23 0 52 -4 66 -10z"/>
<path d="M7163 6260 c-47 -19 -56 -78 -18 -115 23 -24 30 -25 145 -25 107 0
122 2 140 20 33 33 30 75 -6 108 -23 20 -35 22 -132 21 -59 0 -117 -4 -129 -9z"/>
<path d="M7726 6248 c-15 -13 -29 -37 -32 -55 -5 -27 -1 -37 24 -63 37 -36 71
-39 108 -6 21 18 28 32 28 61 0 29 -7 43 -28 61 -34 30 -68 30 -100 2z"/>
<path d="M2370 5960 c-27 -27 -25 -66 5 -95 l24 -25 369 0 c358 0 370 1 396
21 32 25 35 70 6 99 -19 19 -33 20 -400 20 -367 0 -381 -1 -400 -20z"/>
<path d="M7153 5784 c-20 -20 -24 -31 -19 -57 4 -17 11 -36 16 -41 27 -27 351
-36 399 -11 48 24 55 72 16 110 -24 25 -26 25 -205 25 -181 0 -181 0 -207 -26z"/>
<path d="M2725 5445 c-109 -39 -155 -173 -91 -268 47 -69 126 -99 206 -78 81
22 130 88 130 176 0 85 -51 150 -135 174 -50 14 -61 13 -110 -4z m118 -123 c9
-9 17 -29 17 -47 0 -59 -66 -92 -113 -55 -44 35 -32 98 24 118 27 10 46 6 72
-16z"/>
<path d="M7135 5295 c-33 -32 -31 -60 4 -96 l29 -29 401 0 c272 0 408 4 424
11 25 11 47 47 47 75 0 8 -11 26 -25 39 l-24 25 -416 0 -416 0 -24 -25z"/>
<path d="M7382 4957 c-25 -26 -29 -82 -9 -108 16 -21 51 -39 77 -39 34 0 70
44 70 85 0 74 -89 114 -138 62z"/>
<path d="M2355 4665 c-50 -49 -15 -135 55 -135 46 0 95 51 85 88 -17 70 -92
96 -140 47z"/>
<path d="M2750 4660 c-26 -26 -25 -60 1 -94 l20 -26 167 0 c92 0 172 4 178 8
16 11 34 48 34 71 0 12 -9 30 -20 41 -18 18 -33 20 -190 20 -157 0 -172 -2
-190 -20z"/>
<path d="M7175 4565 c-14 -13 -25 -36 -25 -50 0 -14 11 -37 25 -50 l24 -25
375 0 374 0 26 31 c33 39 33 54 -3 90 l-29 29 -372 0 -371 0 -24 -25z"/>
<path d="M2526 4216 c-15 -14 -26 -33 -26 -42 0 -10 43 -61 95 -113 80 -79 93
-97 83 -110 -7 -9 -50 -55 -96 -103 -70 -73 -83 -91 -77 -110 12 -37 25 -48
60 -48 27 0 47 15 126 90 l94 91 91 -96 c67 -69 98 -95 116 -95 28 0 68 38 68
65 0 10 -43 61 -95 114 l-95 97 95 94 c96 96 108 117 85 160 -14 26 -57 34
-85 16 -13 -9 -59 -53 -104 -98 l-80 -83 -88 92 c-101 106 -128 119 -167 79z"/>
<path d="M7520 3950 c-29 -29 -27 -90 3 -118 50 -47 137 -10 137 58 0 67 -93
107 -140 60z"/>
<path d="M3353 3609 c-50 -24 -119 -96 -139 -144 -16 -40 -18 -124 -4 -177 16
-55 69 -119 125 -150 69 -38 173 -39 243 -4 199 101 196 374 -5 475 -58 29
-162 29 -220 0z m193 -152 c28 -26 37 -42 41 -77 4 -40 1 -49 -29 -84 -31 -35
-40 -40 -91 -44 -54 -4 -58 -3 -92 31 -30 30 -35 42 -35 82 0 42 5 52 39 86
34 34 44 39 85 39 38 0 52 -6 82 -33z"/>
<path d="M7021 3510 c-95 -23 -159 -130 -132 -221 40 -132 204 -182 304 -91
52 46 71 139 43 205 -17 43 -76 93 -123 106 -42 12 -45 12 -92 1z m73 -111
c36 -17 54 -65 35 -98 -22 -39 -63 -50 -97 -24 -38 28 -41 74 -8 108 28 28 35
30 70 14z"/>
<path d="M3826 2918 c-24 -34 -20 -90 7 -116 73 -68 175 41 107 113 -31 33
-92 35 -114 3z"/>
<path d="M6381 2914 c-28 -35 -26 -75 4 -108 48 -52 135 -17 135 54 0 72 -96
109 -139 54z"/>
</g>
</svg>
