<?xml version="1.0" encoding="UTF-8" standalone="no"?>
<svg
   xmlns:dc="http://purl.org/dc/elements/1.1/"
   xmlns:cc="http://creativecommons.org/ns#"
   xmlns:rdf="http://www.w3.org/1999/02/22-rdf-syntax-ns#"
   xmlns:svg="http://www.w3.org/2000/svg"
   xmlns="http://www.w3.org/2000/svg"
   xmlns:sodipodi="http://sodipodi.sourceforge.net/DTD/sodipodi-0.dtd"
   xmlns:inkscape="http://www.inkscape.org/namespaces/inkscape"
   version="1.0"
   width="48.000000pt"
   height="48.000000pt"
   viewBox="0 0 1024.000000 1024.000000"
   preserveAspectRatio="xMidYMid meet"
   id="svg12"
   sodipodi:docname="image (7).svg"
   inkscape:version="1.0.2-2 (e86c870879, 2021-01-15)">
  <defs
     id="defs16" />
  <sodipodi:namedview
     pagecolor="#ffffff"
     bordercolor="#666666"
     borderopacity="1"
     objecttolerance="10"
     gridtolerance="10"
     guidetolerance="10"
     inkscape:pageopacity="0"
     inkscape:pageshadow="2"
     inkscape:window-width="1920"
     inkscape:window-height="991"
     id="namedview14"
     showgrid="false"
     inkscape:zoom="0.60058594"
     inkscape:cx="682.66667"
     inkscape:cy="683.49244"
     inkscape:window-x="-9"
     inkscape:window-y="-9"
     inkscape:window-maximized="1"
     inkscape:current-layer="svg12" />
  <metadata
     id="metadata2">
Created by potrace 1.16, written by Peter Selinger 2001-2019
<rdf:RDF>
  <cc:Work
     rdf:about="">
    <dc:format>image/svg+xml</dc:format>
    <dc:type
       rdf:resource="http://purl.org/dc/dcmitype/StillImage" />
  </cc:Work>
</rdf:RDF>
</metadata>
  <g
     transform="matrix(0.1,0,0,-0.1,-76.175607,1026.4976)"
     fill="#b9e6f0"
     stroke="none"
     id="g10">
    <path
       d="m 4905,7833 c -451,-55 -796,-319 -926,-708 -23,-68 -23,-80 -27,-512 -2,-319 -6,-443 -14,-443 -39,0 -368,-57 -498,-86 -675,-152 -980,-306 -1109,-563 -51,-99 -52,-112 -51,-566 0,-418 1,-426 23,-489 50,-137 121,-224 256,-314 214,-143 627,-270 1136,-352 105,-17 204,-33 222,-35 l 32,-6 4,-462 c 4,-509 4,-506 72,-653 183,-398 632,-641 1101,-595 406,40 706,238 878,580 66,131 76,191 76,466 0,133 3,336 7,451 l 6,210 126,18 c 320,46 683,126 916,203 114,37 253,102 340,158 107,69 239,235 270,339 22,72 22,885 0,965 -21,82 -61,152 -127,225 -134,148 -312,238 -686,346 -161,46 -550,123 -709,141 -62,7 -116,15 -122,18 -5,4 -13,202 -19,466 -10,512 -6,481 -87,648 -75,152 -255,333 -415,416 -196,102 -478,158 -675,134 z m 401,-330 c 239,-83 416,-255 480,-468 17,-56 18,-123 19,-957 v -898 h -72 -71 l -31,54 c -67,120 -181,151 -265,73 -28,-27 -41,-54 -71,-152 -20,-66 -39,-127 -42,-135 -9,-23 -19,42 -47,315 -54,524 -49,498 -102,545 -29,25 -43,30 -84,30 -41,0 -55,-5 -85,-31 -44,-39 -49,-59 -75,-309 -26,-252 -61,-554 -65,-558 -2,-2 -6,5 -8,15 -60,204 -81,260 -114,290 -85,81 -200,47 -272,-82 l -31,-55 h -71 -70 l 3,908 3,907 26,72 c 36,98 72,157 138,226 72,76 180,147 281,187 134,51 187,59 370,56 156,-2 170,-4 256,-33 z M 3950,5485 v -374 l -507,-3 -508,-3 -120,-38 c -66,-21 -153,-56 -192,-78 l -73,-40 v 174 c 0,201 10,251 67,317 84,98 245,176 544,264 220,65 373,98 689,149 14,2 42,5 63,6 l 37,1 z m 2301,359 c 179,-25 479,-89 664,-142 265,-77 399,-142 496,-244 70,-73 79,-111 79,-325 0,-95 -2,-173 -4,-173 -2,0 -46,20 -97,44 -52,25 -134,57 -184,72 l -90,28 -515,6 -515,5 v 93 c 0,50 1,218 3,372 l 2,280 h 25 c 13,0 75,-7 136,-16 z M 5050,4839 c 11,-117 27,-233 36,-256 40,-108 164,-134 230,-47 27,34 78,189 130,388 l 28,109 29,-34 c 15,-19 43,-51 61,-72 l 34,-38 103,2 104,2 1,-654 c 1,-360 -1,-818 -5,-1019 l -7,-365 -27,-65 c -36,-86 -142,-228 -214,-285 -75,-60 -171,-108 -280,-142 -81,-24 -102,-27 -253,-26 -150,0 -173,2 -253,26 -218,67 -382,197 -471,375 -68,135 -66,105 -66,1181 v 971 h 99 c 55,0 106,3 115,6 8,3 36,35 62,70 26,35 50,64 54,64 3,0 33,-96 65,-212 65,-236 81,-277 123,-306 60,-43 110,-41 165,8 42,36 51,70 72,250 20,173 36,292 41,287 2,-1 13,-100 24,-218 z M 3946,4073 c -7,-7 -246,27 -402,58 -390,76 -735,196 -865,301 -62,50 -112,123 -105,153 16,62 152,150 307,196 71,22 94,23 569,28 l 495,6 3,-369 c 1,-203 0,-371 -2,-373 z m 3212,710 c 40,-12 105,-37 145,-56 78,-37 177,-119 177,-145 0,-47 -102,-158 -197,-215 -125,-75 -394,-163 -663,-217 -184,-37 -519,-92 -528,-86 -10,6 -16,554 -7,659 l 7,88 497,-4 c 467,-3 500,-5 569,-24 z"
       id="path4" />
    <path
       d="m 4945,6582 c -59,-38 -78,-68 -83,-130 -5,-71 21,-116 88,-150 129,-67 273,68 216,201 -7,18 -28,45 -45,61 -41,39 -129,48 -176,18 z"
       id="path6" />
    <path
       d="m 4863,3575 c -63,-27 -92,-112 -57,-165 9,-14 55,-64 103,-112 64,-66 92,-88 112,-88 19,0 48,22 114,89 48,49 94,99 101,112 60,108 -75,225 -184,159 -32,-20 -32,-20 -69,0 -44,23 -75,25 -120,5 z"
       id="path8" />
  </g>
  <path
     d="m 465.59007,313.69883 c -16.9,8.6 -31.8,17.7 -33.1,20 -1,1.9 -1.2,6.8 -1,19.9 l 0.3,17.3 h -3.6 c -10.3,0 -16.8,9.7 -13,19.6 3.9,10.3 18.6,10 24.2,-0.6 2.2,-4.1 2.3,-5.5 2.3,-24.4 l 0.1,-20.1 10.5,-5.9 c 15.1,-8.4 14.4,-8.5 14.4,1.2 v 8.1 l -4.2,2.3 c -8.1,4.4 -11,12.7 -6.9,19.5 3.4,5.6 12.9,5.7 17.5,0.2 4.3,-5.1 4.9,-9.5 4.3,-33.1 -0.5,-22.4 -0.7,-23.7 -4.8,-25.8 -1.2,-0.7 -3.2,-0.2 -7,1.8 z"
     id="path32"
     style="fill:#b9e6f0;stroke:none;stroke-width:0.1" />
</svg>
