<?xml version="1.0" standalone="no"?>
<!DOCTYPE svg PUBLIC "-//W3C//DTD SVG 20010904//EN"
 "http://www.w3.org/TR/2001/REC-SVG-20010904/DTD/svg10.dtd">
<svg version="1.0" xmlns="http://www.w3.org/2000/svg"
 width="48.000000pt" height="48.000000pt" viewBox="0 0 500.000000 500.000000"
 preserveAspectRatio="xMidYMid meet">
<metadata>
Created by potrace 1.16, written by Peter Selinger 2001-2019
</metadata>
<g transform="translate(0.000000,500.000000) scale(0.100000,-0.100000)"
fill="#b9e6f0" stroke="none">
<path d="M2315 4265 c-134 -24 -256 -83 -398 -192 -136 -104 -265 -316 -304
-497 -22 -104 -19 -291 7 -391 23 -92 111 -277 167 -350 67 -87 198 -192 308
-246 151 -74 230 -92 405 -92 175 0 243 15 403 94 91 44 123 66 203 142 138
131 219 264 266 437 32 121 32 330 0 443 -49 171 -136 313 -262 428 -179 165
-373 239 -620 238 -58 -1 -136 -7 -175 -14z m190 -124 c-3 -5 -21 -7 -40 -4
-28 4 -36 2 -42 -13 -4 -11 -12 -23 -18 -29 -5 -5 -8 -9 -6 -8 7 4 41 -39 41
-53 0 -13 57 -30 67 -20 4 3 -1 6 -10 6 -9 0 -18 4 -22 9 -3 6 7 6 27 0 18 -5
55 -10 83 -10 l50 -1 -55 -10 c-30 -5 -81 -7 -112 -5 -32 3 -58 2 -58 -3 0 -4
-21 -11 -46 -15 -26 -3 -54 -9 -63 -12 -11 -4 -13 -3 -6 5 6 5 19 13 30 16 11
3 7 4 -10 2 -16 -2 -37 -5 -45 -8 -8 -3 -12 -3 -7 -1 10 6 9 31 -2 37 -12 8
-41 -4 -41 -16 0 -5 5 -6 10 -3 6 3 10 1 10 -4 0 -14 -11 -13 -32 3 -10 7 -15
16 -11 20 15 14 -57 -2 -79 -18 -23 -17 -23 -17 4 -2 15 9 29 12 32 7 3 -5 -1
-11 -9 -15 -8 -3 -15 -10 -15 -16 0 -6 6 -8 13 -4 6 4 9 3 4 -1 -12 -14 -48
-13 -54 2 -3 7 -9 10 -14 7 -5 -3 -6 -10 -3 -16 4 -6 2 -8 -4 -4 -6 3 -13 2
-17 -4 -3 -5 -1 -10 4 -10 6 0 11 -4 11 -10 0 -5 -7 -6 -17 -3 -9 4 -14 2 -10
-3 3 -6 -3 -15 -14 -22 -19 -12 -26 -5 -11 14 4 5 -4 -4 -18 -21 -14 -16 -37
-42 -52 -57 -14 -16 -24 -28 -21 -28 3 0 0 -6 -6 -13 -6 -8 -8 -17 -4 -21 4
-4 -1 -4 -11 0 -16 6 -17 4 -8 -13 13 -24 7 -34 -16 -26 -10 4 -13 2 -8 -5 4
-7 3 -12 -1 -12 -5 0 -17 -14 -27 -31 -11 -18 -14 -29 -7 -25 13 8 14 4 5 -18
-3 -9 -10 -14 -14 -11 -5 3 -11 1 -15 -5 -3 -5 -1 -10 6 -10 8 0 6 -6 -4 -18
-18 -20 -23 -37 -8 -28 5 3 9 -6 9 -19 0 -24 -1 -24 -15 -8 -13 17 -14 16 -7
-7 4 -14 6 -47 5 -73 -1 -32 2 -46 9 -42 6 4 10 -7 10 -30 0 -21 -6 -38 -14
-41 -14 -5 -15 -46 -1 -77 4 -9 5 -26 2 -37 -3 -11 -2 -18 3 -15 4 3 11 -2 14
-11 3 -8 2 -12 -4 -9 -6 3 -10 0 -10 -7 0 -10 -3 -9 -11 2 -16 23 0 -30 18
-58 8 -13 17 -36 19 -50 3 -15 9 -29 15 -30 5 -2 7 -8 3 -13 -3 -5 0 -9 5 -9
6 0 10 -3 9 -7 -3 -13 32 -73 42 -73 6 0 9 -3 8 -7 -1 -5 6 -20 16 -35 21 -31
49 -38 40 -10 -5 14 -4 14 4 2 7 -9 7 -19 2 -26 -6 -6 -9 -13 -7 -16 11 -23
-149 156 -167 187 -59 99 -89 300 -67 440 15 93 50 198 86 259 34 58 149 186
214 237 68 55 189 108 291 130 93 19 185 25 175 10z m158 -16 c20 -3 37 -11
37 -16 0 -6 8 -8 18 -5 24 7 187 -66 187 -83 0 -8 6 -16 14 -19 9 -3 11 0 6 8
-6 9 -4 11 5 5 10 -6 9 -11 -5 -22 -25 -18 -35 -16 -29 5 5 14 4 15 -5 2 -9
-13 -11 -13 -11 2 0 9 5 18 11 20 6 2 -9 3 -34 3 -29 0 -43 -4 -40 -11 2 -7
12 -10 21 -7 10 2 28 -7 42 -23 14 -15 20 -24 14 -21 -7 4 -17 0 -24 -8 -13
-16 -35 -21 -25 -6 3 5 1 13 -5 16 -6 4 -9 1 -8 -6 2 -6 -3 -14 -11 -17 -8 -3
-11 0 -7 7 5 7 1 9 -8 5 -9 -3 -16 -10 -16 -14 0 -14 27 -19 39 -7 6 6 11 7
12 2 0 -6 2 -18 4 -27 4 -19 -10 -24 -20 -8 -10 17 -105 61 -170 81 -33 9 -51
18 -40 18 11 1 38 12 60 26 44 27 43 33 -1 10 -19 -10 -32 -11 -40 -4 -7 5
-24 7 -38 3 -16 -4 -26 -2 -26 5 0 6 5 10 11 9 7 -2 20 11 31 29 l19 32 -28
15 c-27 16 -27 16 -3 12 14 -3 42 -8 63 -11z m273 -164 c-3 -5 1 -14 10 -21 8
-7 12 -20 9 -29 -5 -12 -2 -11 14 3 14 13 21 14 27 5 4 -8 3 -10 -4 -5 -7 4
-12 2 -12 -3 0 -6 6 -11 13 -11 8 0 7 -4 -3 -10 -11 -7 -12 -10 -2 -10 9 0 11
-7 7 -19 -7 -23 12 -38 27 -23 8 8 21 -4 44 -41 19 -29 34 -57 34 -64 0 -6 6
-14 13 -16 6 -3 2 -6 -9 -6 -12 -1 -27 -8 -34 -16 -10 -12 -6 -13 23 -8 l34 5
22 -63 c11 -35 21 -74 20 -88 -1 -19 -3 -16 -10 14 -5 22 -15 44 -21 50 -11
10 -8 -11 7 -49 6 -14 4 -17 -6 -14 -7 2 -16 15 -19 29 -5 17 -12 23 -28 22
-18 -2 -28 10 -56 67 -19 39 -33 70 -32 70 2 0 -14 19 -35 42 -41 45 -49 61
-24 52 8 -3 13 -10 12 -14 -3 -12 17 -13 21 -2 3 11 -36 28 -52 23 -5 -1 -12
2 -15 7 -3 4 -17 16 -30 25 -26 18 -39 52 -16 43 9 -3 12 3 11 19 -2 15 1 22
9 19 6 -3 18 2 25 11 13 16 35 21 26 6z m-408 -153 c7 -7 12 -36 12 -65 l0
-53 96 0 c80 0 103 -4 135 -22 69 -39 90 -151 41 -218 l-20 -27 22 -29 c50
-64 55 -131 14 -199 -33 -57 -61 -68 -180 -73 l-107 -5 -3 -60 c-3 -67 -23
-92 -55 -71 -13 8 -19 27 -21 73 l-3 61 -40 0 c-53 0 -79 15 -79 45 0 14 8 29
19 35 12 6 96 10 205 10 l185 0 20 26 c28 35 26 66 -5 103 l-25 31 -181 2
c-160 3 -182 5 -192 21 -8 12 -8 22 0 35 10 15 34 18 183 22 l173 5 24 28 c32
37 31 77 -2 108 -25 23 -30 24 -201 26 -97 1 -182 4 -189 7 -17 7 -18 38 -2
54 7 7 34 12 60 12 l48 0 0 53 c0 54 12 77 40 77 9 0 21 -5 28 -12z m-593 -98
c-2 -4 3 -16 11 -26 13 -16 15 -16 10 -2 -3 10 -1 20 5 23 5 4 7 11 4 16 -4 5
-2 9 4 9 15 0 23 -18 9 -22 -6 -2 -12 -13 -14 -24 -1 -10 -14 -47 -29 -82 -24
-57 -52 -222 -41 -240 2 -4 7 -39 10 -78 5 -71 5 -71 -19 -71 -14 0 -26 5 -26
11 -2 21 3 41 13 47 5 4 3 9 -6 12 -11 5 -16 1 -16 -13 0 -11 -7 -20 -16 -20
-13 0 -14 12 -8 88 9 108 9 111 0 142 l-8 25 21 -27 c11 -14 21 -39 20 -55 0
-24 -1 -26 -9 -8 -7 16 -9 17 -9 3 -1 -9 4 -20 9 -23 6 -3 10 -16 9 -28 0 -21
-1 -21 -9 -2 l-9 20 0 -20 c0 -11 6 -31 14 -45 l14 -25 2 30 c2 17 1 55 0 85
-3 73 7 129 20 109 7 -9 8 2 3 34 -4 29 -2 47 4 47 6 0 8 9 5 20 -4 15 -1 18
15 15 11 -2 23 3 26 10 3 9 0 12 -10 8 -8 -3 -14 1 -14 8 0 11 -2 11 -10 -1
-5 -8 -12 -11 -16 -7 -4 4 -3 12 4 19 8 8 15 8 27 -2 8 -7 15 -8 15 -2 0 5 -7
15 -15 22 -8 7 -15 9 -15 4 0 -4 -5 -3 -12 4 -17 17 9 47 28 31 8 -6 12 -15 9
-19z"/>
<path d="M1177 3246 c-69 -26 -107 -76 -107 -144 0 -21 18 -168 40 -328 22
-159 52 -379 67 -489 l27 -200 56 -90 c32 -49 69 -112 83 -140 14 -27 62 -111
108 -185 150 -247 159 -266 159 -331 l0 -59 -96 0 c-92 0 -97 -1 -125 -29
l-29 -29 -2 -169 c-3 -316 1 -333 69 -352 24 -7 200 -11 466 -11 375 0 433 2
463 16 19 9 37 26 40 38 3 12 4 129 2 260 -3 236 -3 238 -27 257 -13 10 -34
19 -48 19 l-25 0 5 93 c3 50 10 112 16 137 5 25 10 89 11 144 0 200 -58 323
-239 501 -39 39 -91 93 -116 121 l-44 52 -16 128 c-13 99 -22 139 -42 176 -39
71 -107 130 -174 151 -54 17 -57 20 -63 57 -8 52 -62 120 -116 148 -38 19 -47
29 -56 65 -18 65 -30 90 -59 126 -55 64 -155 94 -228 67z m125 -153 c38 -42
45 -61 53 -145 4 -46 13 -82 21 -89 14 -11 53 -9 86 6 13 5 26 -2 48 -25 37
-40 38 -51 1 -73 -16 -9 -39 -33 -51 -53 -26 -41 -28 -15 32 -362 l43 -243 45
-58 c98 -127 223 -271 240 -276 28 -9 69 12 76 40 10 40 -2 66 -58 131 -29 34
-80 96 -113 138 l-60 76 -41 233 c-28 158 -38 236 -31 245 27 34 118 -2 152
-61 14 -24 44 -211 45 -284 0 -11 63 -84 266 -304 40 -43 85 -104 100 -136 28
-56 29 -64 28 -193 -1 -74 -5 -190 -9 -258 l-7 -122 -212 2 -211 3 -5 90 c-5
84 -8 94 -44 150 -47 72 -136 222 -136 229 0 2 -46 80 -101 171 -56 92 -105
181 -110 199 -13 46 -117 756 -135 913 -3 33 -3 66 0 72 13 21 61 12 88 -16z
m958 -2108 l0 -155 -382 0 c-353 0 -381 1 -360 16 23 16 58 25 100 26 12 0 22
4 22 9 0 5 -7 9 -15 9 -20 0 -20 0 -54 10 -20 5 -31 5 -34 -3 -2 -6 -11 -8
-20 -4 -15 5 -17 23 -17 127 l0 120 380 0 380 0 0 -155z"/>
<path d="M1555 1040 c-10 -11 -21 -17 -25 -15 -5 3 -7 -3 -6 -12 2 -10 9 -18
16 -18 8 0 17 -14 22 -31 12 -45 57 -63 104 -41 30 15 34 21 34 54 -1 43 -18
72 -39 65 -8 -3 -11 0 -7 6 4 7 -3 8 -26 2 -20 -6 -36 -6 -43 0 -8 7 -18 4
-30 -10z"/>
<path d="M3703 3251 c-85 -22 -153 -98 -173 -195 -10 -49 -14 -55 -42 -61 -45
-10 -111 -81 -129 -140 -15 -46 -20 -51 -68 -70 -122 -48 -192 -150 -211 -310
-19 -159 -13 -147 -134 -274 -135 -141 -209 -233 -234 -292 -51 -118 -65 -276
-36 -404 36 -158 32 -219 -15 -228 -59 -12 -66 -38 -69 -268 -2 -132 1 -222 8
-249 19 -70 18 -70 502 -70 233 0 441 5 463 10 73 17 75 23 75 277 0 299 -2
303 -158 303 -103 0 -105 2 -95 78 6 52 31 100 168 332 51 85 124 209 163 275
l70 120 31 215 c16 118 33 240 36 270 4 30 22 163 40 296 19 132 31 252 28
265 -8 35 -50 87 -82 104 -37 19 -98 26 -138 16z m75 -140 c15 -9 -6 -176 -89
-726 l-41 -270 -109 -181 c-60 -100 -109 -184 -109 -187 0 -6 -63 -112 -134
-227 -45 -73 -46 -76 -46 -157 l0 -83 -212 2 -213 3 3 71 c2 39 -4 108 -12
154 -37 191 -5 342 96 450 17 19 66 73 109 120 42 47 99 109 127 139 54 58 50
45 78 282 10 81 71 149 134 149 51 0 51 -1 9 -254 l-40 -239 -57 -71 c-31 -39
-83 -101 -114 -139 -63 -73 -76 -106 -60 -142 12 -26 62 -42 87 -27 16 8 74
77 209 247 59 74 65 85 75 153 6 41 27 160 46 265 45 245 45 247 -5 297 -22
22 -44 40 -50 40 -19 0 -10 20 24 58 28 30 37 35 47 25 17 -17 74 -17 87 0 6
7 13 41 17 77 9 91 22 126 56 155 31 25 63 32 87 16z m-278 -2120 c0 -83 -3
-152 -7 -154 -5 -3 -8 39 -8 93 0 54 -3 93 -7 87 -4 -7 -8 5 -8 25 0 20 -5 40
-12 44 -7 5 -8 3 -3 -6 6 -10 3 -12 -13 -8 -23 6 -28 -1 -14 -18 4 -5 0 -1
-10 8 -18 20 -33 24 -22 7 3 -6 0 -15 -7 -21 -12 -7 -11 -9 1 -7 24 2 58 -12
64 -26 7 -18 -5 -95 -14 -90 -5 3 -7 -5 -6 -18 3 -20 0 -22 -38 -18 -25 3 -32
6 -19 9 12 2 27 11 35 20 11 15 11 15 -2 6 -8 -6 -28 -14 -44 -18 -34 -8 -29
-15 16 -26 l33 -8 -31 -1 c-16 -1 -39 6 -50 14 -29 22 -41 18 -16 -5 27 -26
28 -34 3 -20 -28 14 -35 29 -21 45 8 9 8 15 0 20 -6 3 -8 10 -5 15 3 5 1 11
-5 15 -5 3 -10 11 -10 16 0 6 5 7 12 3 6 -4 8 -3 5 3 -10 16 -53 10 -48 -7 2
-8 5 -30 6 -49 1 -19 9 -39 18 -46 10 -7 17 -16 17 -20 0 -5 -8 -1 -19 9 -10
9 -25 14 -35 10 -11 -4 -15 -2 -11 8 3 7 0 22 -8 31 -11 17 -13 16 -15 -8 -3
-42 31 -63 103 -63 33 1 65 4 70 8 6 4 24 10 40 13 17 4 25 4 18 1 -7 -3 -9
-12 -6 -20 4 -12 -15 -14 -117 -14 -104 0 -121 2 -116 15 4 13 -8 15 -76 15
-45 0 -78 -3 -74 -7 4 -4 36 -6 71 -5 40 2 65 -1 65 -8 0 -6 -46 -10 -127 -9
-71 1 -120 3 -110 6 9 2 17 9 17 14 0 11 -77 12 -82 1 -1 -5 -19 -11 -39 -15
-35 -5 -37 -4 -44 26 -6 28 -8 30 -14 12 -6 -14 -10 -3 -16 43 -5 43 -4 67 4
75 6 6 10 27 10 47 l-2 35 -7 -40 -7 -40 -2 40 c-1 26 -4 35 -10 26 -5 -8 -9
3 -9 33 l-1 46 379 0 380 0 0 -149z"/>
<path d="M2238 2334 c-11 -11 -10 -163 2 -204 5 -20 23 -57 40 -83 24 -38 43
-54 85 -73 31 -13 64 -24 75 -24 17 0 20 -9 22 -87 l3 -88 30 0 30 0 3 88 c2
76 5 87 21 87 76 0 176 79 198 157 10 32 19 177 14 221 -3 35 -144 -15 -211
-75 l-51 -46 -37 36 c-57 55 -202 114 -224 91z"/>
</g>
</svg>
